<svg width="18" height="18" viewBox="0 0 18 18" fill="none" xmlns="http://www.w3.org/2000/svg">
<g id="ep:arrow-right">
<path id="Vector" d="M5.99095 2.62463C5.89283 2.72509 5.83789 2.85995 5.83789 3.00038C5.83789 3.14081 5.89283 3.27567 5.99095 3.37613L11.4731 9L5.99095 14.6227C5.89283 14.7232 5.83789 14.8581 5.83789 14.9985C5.83789 15.1389 5.89283 15.2738 5.99095 15.3742C6.03865 15.4232 6.09567 15.4622 6.15866 15.4887C6.22165 15.5153 6.28933 15.529 6.3577 15.529C6.42607 15.529 6.49375 15.5153 6.55674 15.4887C6.61973 15.4622 6.67675 15.4232 6.72445 15.3742L12.5542 9.39262C12.6566 9.28758 12.7139 9.14669 12.7139 9C12.7139 8.8533 12.6566 8.71242 12.5542 8.60737L6.72445 2.62575C6.67675 2.57677 6.61973 2.53783 6.55674 2.51124C6.49375 2.48466 6.42607 2.47096 6.3577 2.47096C6.28933 2.47096 6.22165 2.48466 6.15866 2.51124C6.09567 2.53783 6.03865 2.57677 5.99095 2.62575V2.62463Z" fill="#105456"/>
</g>
</svg>
