<svg width="16" height="16" viewBox="0 0 16 16" fill="none" xmlns="http://www.w3.org/2000/svg">
<g id="ep:arrow-down-bold">
<path id="Vector" d="M2.26414 5.26768C2.43332 5.09628 2.66274 5 2.90196 5C3.14118 5 3.37061 5.09628 3.53978 5.26768L8.00545 9.7932L12.4711 5.26768C12.6413 5.10114 12.8691 5.00899 13.1057 5.01107C13.3422 5.01316 13.5685 5.10931 13.7358 5.27882C13.903 5.44832 13.9979 5.67763 14 5.91734C14.002 6.15705 13.9111 6.388 13.7468 6.56042L8.64327 11.7323C8.47409 11.9037 8.24467 12 8.00545 12C7.76623 12 7.5368 11.9037 7.36762 11.7323L2.26414 6.56042C2.09501 6.38898 2 6.15648 2 5.91405C2 5.67163 2.09501 5.43913 2.26414 5.26768Z" fill="#105456"/>
</g>
</svg>
