<svg width="24" height="24" viewBox="0 0 24 24" fill="none" xmlns="http://www.w3.org/2000/svg">
<g id="solar:camera-outline">
<path id="Vector" fill-rule="evenodd" clip-rule="evenodd" d="M7.90512 5.06492C8.15349 3.85569 9.23814 3 10.48 3H13.52C14.7619 3 15.8456 3.85569 16.0949 5.06492C16.1224 5.19808 16.1942 5.31819 16.2988 5.40592C16.4034 5.49366 16.5347 5.54392 16.6716 5.54862H16.7023C18.0074 5.60585 19.0102 5.76462 19.8474 6.31015C20.3749 6.65354 20.8288 7.09477 21.1823 7.61077C21.6223 8.25138 21.8158 8.988 21.9088 9.87785C22 10.7483 22 11.8385 22 13.2194V13.2978C22 14.6788 22 15.7698 21.9088 16.6394C21.8158 17.5292 21.6223 18.2658 21.1823 18.9074C20.8277 19.4237 20.3741 19.8656 19.8474 20.208C19.1935 20.6335 18.4428 20.8218 17.533 20.9114C16.6419 21 15.5247 21 14.1051 21H9.89488C8.47535 21 7.35814 21 6.46698 20.9114C5.55721 20.8218 4.80651 20.6345 4.15256 20.208C3.62577 19.8654 3.17218 19.4231 2.81767 18.9065C2.37767 18.2658 2.18419 17.5292 2.09116 16.6394C2 15.7698 2 14.6788 2 13.2978V13.2194C2 11.8385 2 10.7483 2.09116 9.87785C2.18419 8.988 2.37767 8.25138 2.81767 7.61077C3.17218 7.09414 3.62577 6.65187 4.15256 6.30923C4.98977 5.76462 5.99256 5.60585 7.29767 5.54954L7.31349 5.54862H7.32837C7.46526 5.54392 7.59658 5.49366 7.7012 5.40592C7.80581 5.31819 7.87764 5.19808 7.90512 5.06492ZM10.48 4.38462C9.88465 4.38462 9.38512 4.79354 9.27256 5.34092C9.09116 6.22708 8.2986 6.92492 7.34512 6.93323C6.09116 6.98862 5.41954 7.14092 4.91721 7.46769C4.54407 7.71067 4.22265 8.02398 3.97116 8.38985C3.71442 8.76369 3.56 9.24277 3.47814 10.0209C3.39628 10.8111 3.39535 11.8302 3.39535 13.2591C3.39535 14.688 3.39535 15.7062 3.47907 16.4963C3.56 17.2745 3.71442 17.7535 3.97209 18.1283C4.2214 18.492 4.54233 18.8058 4.91814 19.0495C5.30605 19.3025 5.80279 19.4548 6.60558 19.5342C7.4186 19.6145 8.46605 19.6154 9.93302 19.6154H14.067C15.533 19.6154 16.5805 19.6154 17.3944 19.5342C18.1972 19.4548 18.694 19.3034 19.0819 19.0505C19.4577 18.8058 19.7795 18.492 20.0288 18.1274C20.2856 17.7535 20.44 17.2745 20.5219 16.4963C20.6037 15.7062 20.6047 14.6871 20.6047 13.2591C20.6047 11.8302 20.6047 10.8111 20.5209 10.0209C20.44 9.24277 20.2856 8.76369 20.0279 8.38985C19.7767 8.02349 19.4552 7.70983 19.0819 7.46677C18.5814 7.14092 17.9098 6.98862 16.654 6.93323C15.7014 6.924 14.9088 6.228 14.7274 5.34092C14.6679 5.06794 14.5153 4.82371 14.2953 4.64948C14.0753 4.47525 13.8014 4.3817 13.52 4.38462H10.48ZM12 10.8462C11.4449 10.8462 10.9125 11.065 10.52 11.4545C10.1275 11.844 9.90698 12.3722 9.90698 12.9231C9.90698 13.4739 10.1275 14.0022 10.52 14.3917C10.9125 14.7812 11.4449 15 12 15C12.5551 15 13.0875 14.7812 13.48 14.3917C13.8725 14.0022 14.093 13.4739 14.093 12.9231C14.093 12.3722 13.8725 11.844 13.48 11.4545C13.0875 11.065 12.5551 10.8462 12 10.8462ZM8.51163 12.9231C8.51163 12.005 8.87915 11.1246 9.53335 10.4754C10.1875 9.82624 11.0748 9.46154 12 9.46154C12.9252 9.46154 13.8125 9.82624 14.4667 10.4754C15.1208 11.1246 15.4884 12.005 15.4884 12.9231C15.4884 13.8411 15.1208 14.7216 14.4667 15.3708C13.8125 16.0199 12.9252 16.3846 12 16.3846C11.0748 16.3846 10.1875 16.0199 9.53335 15.3708C8.87915 14.7216 8.51163 13.8411 8.51163 12.9231ZM16.8837 10.1538C16.8837 9.97023 16.9572 9.79414 17.0881 9.66431C17.2189 9.53448 17.3964 9.46154 17.5814 9.46154H18.5116C18.6967 9.46154 18.8741 9.53448 19.005 9.66431C19.1358 9.79414 19.2093 9.97023 19.2093 10.1538C19.2093 10.3375 19.1358 10.5135 19.005 10.6434C18.8741 10.7732 18.6967 10.8462 18.5116 10.8462H17.5814C17.3964 10.8462 17.2189 10.7732 17.0881 10.6434C16.9572 10.5135 16.8837 10.3375 16.8837 10.1538Z" fill="#105456"/>
</g>
</svg>
