<svg width="17" height="17" viewBox="0 0 17 17" fill="none" xmlns="http://www.w3.org/2000/svg">
<g id="bi:camera" clip-path="url(#clip0_455_1720)">
<g id="Group">
<path id="Vector" d="M15.6172 12.6667C15.6172 12.9275 15.5136 13.1776 15.3292 13.362C15.1448 13.5464 14.8946 13.65 14.6339 13.65H2.83385C2.57306 13.65 2.32294 13.5464 2.13853 13.362C1.95412 13.1776 1.85052 12.9275 1.85052 12.6667V6.76669C1.85052 6.5059 1.95412 6.25578 2.13853 6.07137C2.32294 5.88696 2.57306 5.78336 2.83385 5.78336H3.98632C4.7683 5.78293 5.51812 5.47204 6.07099 4.91901L6.88715 4.10481C7.07104 3.92087 7.32031 3.81727 7.5804 3.81669H9.88534C10.1461 3.81675 10.3962 3.92039 10.5806 4.10481L11.3948 4.91901C11.6687 5.19308 11.994 5.41048 12.3521 5.55879C12.7101 5.70709 13.0939 5.78341 13.4814 5.78336H14.6339C14.8946 5.78336 15.1448 5.88696 15.3292 6.07137C15.5136 6.25578 15.6172 6.5059 15.6172 6.76669V12.6667ZM2.83385 4.80003C2.31226 4.80003 1.81203 5.00723 1.44321 5.37605C1.07439 5.74487 0.867188 6.2451 0.867188 6.76669L0.867188 12.6667C0.867188 13.1883 1.07439 13.6885 1.44321 14.0573C1.81203 14.4262 2.31226 14.6334 2.83385 14.6334H14.6339C15.1554 14.6334 15.6557 14.4262 16.0245 14.0573C16.3933 13.6885 16.6005 13.1883 16.6005 12.6667V6.76669C16.6005 6.2451 16.3933 5.74487 16.0245 5.37605C15.6557 5.00723 15.1554 4.80003 14.6339 4.80003H13.4814C12.9598 4.79991 12.4597 4.59264 12.091 4.22379L11.2768 3.40959C10.908 3.04074 10.4079 2.83347 9.88632 2.83336H7.58139C7.05984 2.83347 6.55969 3.04074 6.19095 3.40959L5.37675 4.22379C5.00802 4.59264 4.50787 4.79991 3.98632 4.80003H2.83385Z" fill="#35D5DA"/>
<path id="Vector_2" d="M8.73398 11.6834C8.08199 11.6834 7.45671 11.4244 6.99568 10.9633C6.53465 10.5023 6.27565 9.87701 6.27565 9.22502C6.27565 8.57303 6.53465 7.94775 6.99568 7.48672C7.45671 7.02569 8.08199 6.76669 8.73398 6.76669C9.38598 6.76669 10.0113 7.02569 10.4723 7.48672C10.9333 7.94775 11.1923 8.57303 11.1923 9.22502C11.1923 9.87701 10.9333 10.5023 10.4723 10.9633C10.0113 11.4244 9.38598 11.6834 8.73398 11.6834ZM8.73398 12.6667C9.64677 12.6667 10.5222 12.3041 11.1676 11.6586C11.813 11.0132 12.1757 10.1378 12.1757 9.22502C12.1757 8.31224 11.813 7.43683 11.1676 6.7914C10.5222 6.14596 9.64677 5.78336 8.73398 5.78336C7.8212 5.78336 6.9458 6.14596 6.30036 6.7914C5.65492 7.43683 5.29232 8.31224 5.29232 9.22502C5.29232 10.1378 5.65492 11.0132 6.30036 11.6586C6.9458 12.3041 7.8212 12.6667 8.73398 12.6667ZM3.81732 7.25836C3.81732 7.38875 3.76552 7.51381 3.67331 7.60602C3.58111 7.69822 3.45605 7.75002 3.32565 7.75002C3.19525 7.75002 3.0702 7.69822 2.97799 7.60602C2.88578 7.51381 2.83398 7.38875 2.83398 7.25836C2.83398 7.12796 2.88578 7.0029 2.97799 6.9107C3.0702 6.81849 3.19525 6.76669 3.32565 6.76669C3.45605 6.76669 3.58111 6.81849 3.67331 6.9107C3.76552 7.0029 3.81732 7.12796 3.81732 7.25836Z" fill="#35D5DA"/>
</g>
</g>
<defs>
<clipPath id="clip0_455_1720">
<rect width="15.7333" height="15.7333" fill="white" transform="translate(0.867188 0.866699)"/>
</clipPath>
</defs>
</svg>
