<svg width="24" height="24" viewBox="0 0 24 24" fill="none" xmlns="http://www.w3.org/2000/svg">
<g id="fluent:chat-20-filled">
<path id="Vector" d="M12.0026 3C13.3621 3.00079 14.7038 3.30938 15.927 3.90262C17.1501 4.49587 18.223 5.35836 19.0651 6.42536C19.9072 7.49237 20.4966 8.73619 20.7891 10.0635C21.0817 11.3908 21.0697 12.767 20.7541 14.089C20.4385 15.411 19.8276 16.6444 18.967 17.6966C18.1065 18.7488 17.0188 19.5925 15.7855 20.1644C14.5522 20.7363 13.2053 21.0215 11.846 20.9986C10.4867 20.9758 9.15017 20.6454 7.9368 20.0324L7.80064 19.9593L3.69883 20.983C3.61989 21.0029 3.53758 21.0053 3.45758 20.9903C3.37759 20.9753 3.30181 20.943 3.23548 20.8959C3.16915 20.8487 3.11385 20.7877 3.07339 20.7171C3.03293 20.6465 3.00827 20.568 3.00113 20.4869V20.3946L3.01688 20.3013L4.04093 16.2018L3.97003 16.0668C3.45506 15.0534 3.13807 13.9511 3.03601 12.8189L3.00788 12.3892L3 11.9999C3 9.61301 3.94849 7.32384 5.6368 5.63602C7.32512 3.94821 9.61496 3 12.0026 3ZM12.5653 13.1249H9.18929L9.08801 13.1339C8.95828 13.1574 8.84092 13.2257 8.7564 13.3269C8.67189 13.428 8.6256 13.5556 8.6256 13.6874C8.6256 13.8192 8.67189 13.9469 8.7564 14.048C8.84092 14.1492 8.95828 14.2175 9.08801 14.2409L9.18929 14.2499H12.5653L12.6665 14.2409C12.7963 14.2175 12.9136 14.1492 12.9981 14.048C13.0827 13.9469 13.129 13.8192 13.129 13.6874C13.129 13.5556 13.0827 13.428 12.9981 13.3269C12.9136 13.2257 12.7963 13.1574 12.6665 13.1339L12.5653 13.1249ZM14.8159 9.74996H9.18929L9.08801 9.75896C8.95828 9.78244 8.84092 9.85072 8.7564 9.95188C8.67189 10.053 8.6256 10.1807 8.6256 10.3125C8.6256 10.4443 8.67189 10.5719 8.7564 10.673C8.84092 10.7742 8.95828 10.8425 9.08801 10.866L9.18929 10.875H14.8159L14.9172 10.866C15.0469 10.8425 15.1643 10.7742 15.2488 10.673C15.3333 10.5719 15.3796 10.4443 15.3796 10.3125C15.3796 10.1807 15.3333 10.053 15.2488 9.95188C15.1643 9.85072 15.0469 9.78244 14.9172 9.75896L14.8159 9.74996Z" fill="#9AEAEC"/>
</g>
</svg>
