<svg width="26" height="26" viewBox="0 0 26 26" fill="none" xmlns="http://www.w3.org/2000/svg">
<g id="system-uicons:document-stack">
<g id="Group">
<path id="Vector" fill-rule="evenodd" clip-rule="evenodd" d="M21.6667 17.9524V5.57143C21.6667 4.9147 21.4058 4.28487 20.9415 3.8205C20.4771 3.35612 19.8472 3.09524 19.1905 3.09524H9.28576C8.62903 3.09524 7.99921 3.35612 7.53483 3.8205C7.07045 4.28487 6.80957 4.9147 6.80957 5.57143V17.9524C6.80957 18.6091 7.07045 19.2389 7.53483 19.7033C7.99921 20.1677 8.62903 20.4286 9.28576 20.4286H19.1905C19.8472 20.4286 20.4771 20.1677 20.9415 19.7033C21.4058 19.2389 21.6667 18.6091 21.6667 17.9524Z" stroke="black" stroke-linecap="round" stroke-linejoin="round"/>
<path id="Vector_2" d="M6.56789 6.11L4.08675 7.01381C3.46983 7.23851 2.96741 7.69903 2.68996 8.29409C2.41251 8.88915 2.38275 9.57005 2.60722 10.187L6.84151 21.8214C6.95276 22.127 7.12313 22.4077 7.34289 22.6475C7.56265 22.8873 7.82748 23.0814 8.12227 23.2188C8.41706 23.3562 8.73602 23.4341 9.06095 23.4482C9.38588 23.4623 9.7104 23.4123 10.016 23.301L16.9097 20.5796M10.5236 9.28571H16.7141M10.5236 11.7619H17.9522M10.5236 14.2381H14.2379" stroke="black" stroke-linecap="round" stroke-linejoin="round"/>
</g>
</g>
</svg>
