<svg width="14" height="14" viewBox="0 0 14 14" fill="none" xmlns="http://www.w3.org/2000/svg">
<g id="fluent:edit-24-regular">
<g id="Group">
<path id="Vector" d="M12.2675 1.7325C12.6589 2.12392 12.8788 2.65479 12.8788 3.20833C12.8788 3.76188 12.6589 4.29275 12.2675 4.68417L5.28613 11.6667C5.12463 11.8282 4.92376 11.9449 4.70338 12.005L1.71905 12.8188C1.64467 12.8389 1.56627 12.8391 1.49181 12.8193C1.41734 12.7994 1.34943 12.7602 1.29496 12.7057C1.2405 12.6512 1.2014 12.5832 1.18163 12.5087C1.16186 12.4343 1.16212 12.3559 1.18238 12.2815L1.99613 9.29717C2.05627 9.07678 2.17289 8.87591 2.33446 8.71442L9.3158 1.7325C9.70722 1.34109 10.2381 1.1212 10.7916 1.1212C11.3452 1.1212 11.876 1.34109 12.2675 1.7325ZM8.74996 3.535L2.9528 9.33333C2.89901 9.38719 2.86021 9.45414 2.84021 9.52758L2.22771 11.7734L4.47355 11.1609C4.54669 11.1404 4.61324 11.1012 4.66663 11.0472L10.465 5.25L8.74996 3.535ZM9.93413 2.35083L9.3683 2.91667L11.0833 4.63167L11.6491 4.06583C11.8728 3.83763 11.9973 3.53039 11.9957 3.21087C11.9941 2.89136 11.8664 2.58539 11.6405 2.35945C11.4146 2.13352 11.1086 2.00588 10.7891 2.00426C10.4696 2.00265 10.1623 2.12719 9.93413 2.35083Z" fill="#35D5DA"/>
</g>
</g>
</svg>
