<svg width="20" height="20" viewBox="0 0 20 20" fill="none" xmlns="http://www.w3.org/2000/svg">
<g id="fluent:emoji-24-regular">
<path id="Vector" d="M10 1.66501C14.6034 1.66501 18.335 5.39667 18.335 10C18.335 14.6025 14.6025 18.3333 10 18.3333C5.39671 18.3342 1.66504 14.6025 1.66504 10C1.66504 5.39667 5.39671 1.66501 10 1.66501ZM10 2.91501C9.06321 2.90485 8.13367 3.08059 7.26522 3.43207C6.39677 3.78354 5.60665 4.30377 4.94059 4.96265C4.27453 5.62152 3.74576 6.40595 3.38489 7.27054C3.02402 8.13513 2.8382 9.06271 2.8382 9.99959C2.8382 10.9365 3.02402 11.8641 3.38489 12.7286C3.74576 13.5932 4.27453 14.3777 4.94059 15.0365C5.60665 15.6954 6.39677 16.2156 7.26522 16.5671C8.13367 16.9186 9.06321 17.0943 10 17.0842C11.8657 17.0639 13.648 16.3086 14.9601 14.9822C16.2723 13.6558 17.0082 11.8653 17.0082 9.99959C17.0082 8.13384 16.2723 6.3434 14.9601 5.01698C13.648 3.69056 11.8657 2.93524 10 2.91501ZM7.05171 12.3192C7.40246 12.7657 7.85017 13.1265 8.36097 13.3744C8.87177 13.6223 9.43227 13.7507 10 13.75C10.5672 13.7507 11.1271 13.6225 11.6374 13.375C12.1478 13.1276 12.5952 12.7674 12.9459 12.3217C12.9968 12.2573 13.0598 12.2035 13.1315 12.1635C13.2032 12.1235 13.282 12.098 13.3635 12.0884C13.445 12.0788 13.5276 12.0854 13.6066 12.1078C13.6856 12.1302 13.7594 12.1679 13.8238 12.2188C13.8882 12.2696 13.9419 12.3327 13.982 12.4044C14.022 12.476 14.0475 12.5549 14.0571 12.6364C14.0666 12.7179 14.06 12.8005 14.0377 12.8795C14.0153 12.9585 13.9776 13.0323 13.9267 13.0967C13.459 13.6905 12.8626 14.1704 12.1824 14.5001C11.5022 14.8299 10.7559 15.0008 10 15C9.24303 15.0008 8.49576 14.8293 7.81476 14.4987C7.13376 14.1681 6.53686 13.687 6.06921 13.0917C6.01843 13.0272 5.98085 12.9533 5.95863 12.8742C5.9364 12.7952 5.92996 12.7126 5.93967 12.6311C5.94939 12.5495 5.97506 12.4707 6.01523 12.3991C6.0554 12.3275 6.10928 12.2645 6.17379 12.2138C6.2383 12.163 6.31218 12.1254 6.39122 12.1032C6.47025 12.081 6.55289 12.0745 6.63441 12.0842C6.71593 12.0939 6.79474 12.1196 6.86634 12.1598C6.93794 12.2 7.00093 12.2538 7.05171 12.3183V12.3192ZM7.50004 7.29168C7.63926 7.28774 7.77785 7.31176 7.90762 7.36231C8.0374 7.41287 8.15571 7.48893 8.25558 7.58601C8.35544 7.68309 8.43482 7.79921 8.48903 7.9275C8.54324 8.05579 8.57117 8.19365 8.57117 8.33293C8.57117 8.4722 8.54324 8.61006 8.48903 8.73835C8.43482 8.86664 8.35544 8.98276 8.25558 9.07984C8.15571 9.17692 8.0374 9.25298 7.90762 9.30354C7.77785 9.35409 7.63926 9.37811 7.50004 9.37417C7.22898 9.36651 6.9716 9.25344 6.78259 9.059C6.59357 8.86457 6.48783 8.60409 6.48783 8.33293C6.48783 8.06176 6.59357 7.80128 6.78259 7.60685C6.9716 7.41241 7.22898 7.29934 7.50004 7.29168ZM12.5 7.29168C12.6393 7.28774 12.7779 7.31176 12.9076 7.36231C13.0374 7.41287 13.1557 7.48893 13.2556 7.58601C13.3554 7.68309 13.4348 7.79921 13.489 7.9275C13.5432 8.05579 13.5712 8.19365 13.5712 8.33293C13.5712 8.4722 13.5432 8.61006 13.489 8.73835C13.4348 8.86664 13.3554 8.98276 13.2556 9.07984C13.1557 9.17692 13.0374 9.25298 12.9076 9.30354C12.7779 9.35409 12.6393 9.37811 12.5 9.37417C12.229 9.36651 11.9716 9.25344 11.7826 9.059C11.5936 8.86457 11.4878 8.60409 11.4878 8.33293C11.4878 8.06176 11.5936 7.80128 11.7826 7.60685C11.9716 7.41241 12.229 7.29934 12.5 7.29168Z" fill="#90A0B3"/>
</g>
</svg>
