<svg width="20" height="18" viewBox="0 0 20 18" fill="none" xmlns="http://www.w3.org/2000/svg">
<g id="Group 8">
<path id="Vector" d="M20 2.85714H17.0714C16.7143 1.21429 15.2857 0 13.5714 0C11.8571 0 10.4286 1.21429 10.0714 2.85714H0V4.28571H10.0714C10.4286 5.92857 11.8571 7.14286 13.5714 7.14286C15.2857 7.14286 16.7143 5.92857 17.0714 4.28571H20V2.85714ZM13.5714 5.71429C12.3571 5.71429 11.4286 4.78571 11.4286 3.57143C11.4286 2.35714 12.3571 1.42857 13.5714 1.42857C14.7857 1.42857 15.7143 2.35714 15.7143 3.57143C15.7143 4.78571 14.7857 5.71429 13.5714 5.71429Z" fill="#35D5DA"/>
<path id="Vector_2" d="M0 14.2857H2.92857C3.28571 15.9286 4.71429 17.1429 6.42857 17.1429C8.14286 17.1429 9.57143 15.9286 9.92857 14.2857H20V12.8571H9.92857C9.57143 11.2143 8.14286 10 6.42857 10C4.71429 10 3.28571 11.2143 2.92857 12.8571H0V14.2857ZM6.42857 11.4286C7.64286 11.4286 8.57143 12.3571 8.57143 13.5714C8.57143 14.7857 7.64286 15.7143 6.42857 15.7143C5.21429 15.7143 4.28571 14.7857 4.28571 13.5714C4.28571 12.3571 5.21429 11.4286 6.42857 11.4286Z" fill="#35D5DA"/>
</g>
</svg>
