<svg width="24" height="24" viewBox="0 0 24 24" fill="none" xmlns="http://www.w3.org/2000/svg">
<g id="fluent:image-copy-28-regular">
<path id="Vector" d="M3.863 5.14971C3.46694 5.40072 3.14081 5.74784 2.91496 6.15877C2.68911 6.56971 2.57089 7.03109 2.57129 7.5V16.5C2.57129 18.9857 4.58558 21 7.07129 21H16.0713C16.5405 21.0003 17.0022 20.8819 17.4134 20.6559C17.8246 20.43 18.172 20.1037 18.4233 19.7074L18.3187 19.7126L18.2141 19.7143H7.07129C6.21881 19.7143 5.40124 19.3756 4.79845 18.7728C4.19565 18.17 3.857 17.3525 3.857 16.5V5.35714C3.857 5.28771 3.85872 5.21828 3.863 5.14971ZM7.49986 2.57143C6.76104 2.57143 6.05249 2.86492 5.53006 3.38734C5.00764 3.90977 4.71415 4.61832 4.71415 5.35714V16.0714C4.71415 16.4373 4.7862 16.7995 4.9262 17.1375C5.06619 17.4755 5.27139 17.7825 5.53006 18.0412C5.78874 18.2999 6.09584 18.5051 6.43381 18.6451C6.77179 18.7851 7.13404 18.8571 7.49986 18.8571H18.2141C18.58 18.8571 18.9422 18.7851 19.2802 18.6451C19.6182 18.5051 19.9253 18.2999 20.1839 18.0412C20.4426 17.7825 20.6478 17.4755 20.7878 17.1375C20.9278 16.7995 20.9999 16.4373 20.9999 16.0714V5.35714C20.9999 4.61832 20.7064 3.90977 20.1839 3.38734C19.6615 2.86492 18.953 2.57143 18.2141 2.57143H7.49986ZM7.001 17.4866L12.407 12.1911C12.5157 12.0849 12.6584 12.0206 12.81 12.0096C12.9616 11.9986 13.1122 12.0417 13.235 12.1311L13.307 12.1911L18.7121 17.4866C18.5521 17.5428 18.3838 17.5715 18.2141 17.5714H7.49986C7.325 17.5714 7.157 17.5414 7.001 17.4866ZM7.49986 3.85714H18.2141C19.0421 3.85714 19.7141 4.52914 19.7141 5.35714V16.0714C19.7141 16.2497 19.6833 16.4211 19.6259 16.5797L14.207 11.2731C13.865 10.9381 13.4105 10.7422 12.9321 10.7237C12.4536 10.7051 11.9854 10.8653 11.6184 11.1729L11.507 11.2731L6.08815 16.5806C6.02944 16.4173 5.99956 16.245 5.99986 16.0714V5.35714C5.99986 4.52914 6.67186 3.85714 7.49986 3.85714ZM9.857 6.64371C9.71381 6.63966 9.57126 6.66437 9.43777 6.71637C9.30429 6.76837 9.1826 6.84661 9.07988 6.94646C8.97716 7.04631 8.89551 7.16575 8.83976 7.2977C8.784 7.42966 8.75527 7.57146 8.75527 7.71471C8.75527 7.85796 8.784 7.99976 8.83976 8.13172C8.89551 8.26368 8.97716 8.38311 9.07988 8.48297C9.1826 8.58282 9.30429 8.66106 9.43777 8.71306C9.57126 8.76506 9.71381 8.78976 9.857 8.78571C10.1358 8.77782 10.4005 8.66153 10.595 8.46154C10.7894 8.26155 10.8981 7.99363 10.8981 7.71471C10.8981 7.4358 10.7894 7.16788 10.595 6.96789C10.4005 6.7679 10.1358 6.6516 9.857 6.64371Z" fill="white"/>
</g>
</svg>
