<svg width="20" height="20" viewBox="0 0 20 20" fill="none" xmlns="http://www.w3.org/2000/svg">
<g id="bi:house-x-fill" clip-path="url(#clip0_482_1783)">
<g id="Group">
<path id="Vector" d="M10.8845 1.875C10.6501 1.64066 10.3322 1.50902 10.0008 1.50902C9.66934 1.50902 9.35145 1.64066 9.11704 1.875L0.80829 10.1825C0.75018 10.2406 0.704084 10.3096 0.672635 10.3855C0.641187 10.4614 0.625 10.5428 0.625 10.625C0.625 10.7072 0.641187 10.7886 0.672635 10.8645C0.704084 10.9404 0.75018 11.0094 0.80829 11.0675C0.925648 11.1849 1.08482 11.2508 1.25079 11.2508C1.33297 11.2508 1.41434 11.2346 1.49027 11.2032C1.56619 11.1717 1.63518 11.1256 1.69329 11.0675L10.0008 2.75875L18.3083 11.0675C18.4256 11.1849 18.5848 11.2508 18.7508 11.2508C18.9168 11.2508 19.0759 11.1849 19.1933 11.0675C19.3106 10.9501 19.3766 10.791 19.3766 10.625C19.3766 10.459 19.3106 10.2999 19.1933 10.1825L16.2508 7.24125V3.125C16.2508 2.95924 16.1849 2.80027 16.0677 2.68306C15.9505 2.56585 15.7916 2.5 15.6258 2.5H14.3758C14.21 2.5 14.0511 2.56585 13.9338 2.68306C13.8166 2.80027 13.7508 2.95924 13.7508 3.125V4.74125L10.8845 1.875Z" fill="#105456"/>
<path id="Vector_2" d="M10 4.11626L15.89 10.0063C14.85 9.95712 13.8168 10.1976 12.9053 10.7009C11.9939 11.2042 11.2401 11.9506 10.7277 12.857C10.2154 13.7634 9.96467 14.7942 10.0035 15.8346C10.0423 16.875 10.3691 17.8843 10.9475 18.75H4.375C3.87772 18.75 3.40081 18.5525 3.04917 18.2008C2.69754 17.8492 2.5 17.3723 2.5 16.875V11.6163L10 4.11626Z" fill="#105456"/>
<path id="Vector_3" d="M12.5314 18.7185C13.3519 19.539 14.4647 19.9999 15.625 19.9999C16.7853 19.9999 17.8981 19.539 18.7186 18.7185C19.5391 17.898 20 16.7853 20 15.6249C20 14.4646 19.5391 13.3518 18.7186 12.5313C17.8981 11.7109 16.7853 11.2499 15.625 11.2499C14.4647 11.2499 13.3519 11.7109 12.5314 12.5313C11.7109 13.3518 11.25 14.4646 11.25 15.6249C11.25 16.7853 11.7109 17.898 12.5314 18.7185ZM16.2508 13.8572L16.2499 15H17.3919C17.5577 14.9999 17.7168 15.0657 17.8342 15.1829C17.8923 15.2409 17.9384 15.3098 17.9699 15.3857C18.0014 15.4615 18.0176 15.5428 18.0177 15.6249C18.0177 15.707 18.0016 15.7884 17.9702 15.8643C17.9389 15.9402 17.8929 16.0091 17.8348 16.0672C17.7768 16.1254 17.7079 16.1715 17.632 16.2029C17.5562 16.2344 17.4749 16.2507 17.3928 16.2507L16.2499 16.2498L16.2508 17.3927C16.2508 17.5587 16.1849 17.7178 16.0675 17.8352C15.9501 17.9526 15.791 18.0185 15.625 18.0185C15.459 18.0185 15.2999 17.9526 15.1825 17.8352C15.0651 17.7178 14.9992 17.5587 14.9992 17.3927L15.0001 16.2498L13.8572 16.2507C13.6914 16.2508 13.5323 16.1851 13.4149 16.0679C13.2976 15.9507 13.2316 15.7917 13.2314 15.6258C13.2313 15.46 13.2971 15.3009 13.4143 15.1835C13.5315 15.0661 13.6905 15.0001 13.8563 15L15.0001 15L14.9992 13.8572C14.9993 13.6913 15.0653 13.5323 15.1827 13.4151C15.3 13.2979 15.4591 13.2321 15.625 13.2323C15.7909 13.2324 15.9499 13.2984 16.0671 13.4157C16.1843 13.5331 16.25 13.6922 16.2499 13.858L16.2508 13.8572Z" fill="#105456"/>
</g>
</g>
<defs>
<clipPath id="clip0_482_1783">
<rect width="20" height="20" fill="white"/>
</clipPath>
</defs>
</svg>
