<svg width="24" height="25" viewBox="0 0 24 25" fill="none" xmlns="http://www.w3.org/2000/svg">
<g id="carbon:send-alt-filled" clip-path="url(#clip0_496_13429)">
<path id="Vector" d="M22.1404 12.5001C22.1401 12.3573 22.099 12.2175 22.0219 12.0973C21.9449 11.977 21.8351 11.8813 21.7056 11.8213L5.79565 4.39666C5.65686 4.33421 5.50236 4.31545 5.35266 4.34289C5.20297 4.37033 5.06516 4.44265 4.95754 4.55027C4.84993 4.65789 4.7776 4.79569 4.75016 4.94539C4.72272 5.09509 4.74148 5.24959 4.80393 5.38838L7.54044 11.7629L14.2756 11.7523L14.2756 13.2479L7.51922 13.2479L4.78802 19.6277C4.72865 19.7657 4.71207 19.9183 4.74043 20.0658C4.7688 20.2134 4.84081 20.3489 4.94712 20.4551C5.05649 20.56 5.19511 20.6294 5.34469 20.654C5.49427 20.6786 5.6478 20.6573 5.78504 20.5929L21.6949 13.1683C21.8249 13.1106 21.9358 13.0172 22.0147 12.8989C22.0935 12.7806 22.1371 12.6423 22.1404 12.5001Z" fill="white"/>
</g>
<defs>
<clipPath id="clip0_496_13429">
<rect width="24" height="24" fill="white" transform="translate(0 0.5)"/>
</clipPath>
</defs>
</svg>
