<svg width="72" height="149" viewBox="0 0 72 149" fill="none" xmlns="http://www.w3.org/2000/svg">
<g id="Layer_1" clip-path="url(#clip0_423_541)">
<path id="Vector" d="M0.0919931 95.7556C0.0919931 79.9316 0.0919931 64.1076 0.0919931 48.2837C0.0919931 43.6537 0.305131 43.4583 5.02494 43.4583C16.4438 43.4583 27.8628 43.5936 39.2969 43.3531C49.1933 43.1426 54.5221 33.522 49.3151 25.3143C46.4223 20.6994 41.4741 19.6922 36.465 19.6171C25.9292 19.4467 15.3832 19.4467 4.82701 19.6171C1.27954 19.6171 -0.21257 18.5799 0.0310328 14.9421C0.274636 11.3042 0.137609 7.7115 0.0310328 4.10375C0.0310328 1.66852 1.02073 0.210426 3.51766 0.240491C18.5449 0.420878 33.6788 -1.12747 48.5538 2.04434C59.4855 4.37434 67.3265 10.7631 70.0213 21.7216C72.8837 33.3265 72.0159 44.5406 62.6372 53.575C60.732 55.5723 58.4098 57.1367 55.8314 58.1599C52.1926 59.4076 52.4667 61.2716 53.8217 64.1728C59.5312 76.1986 65.1189 88.3597 70.7065 100.476C72.8837 105.211 72.5791 105.602 67.1285 105.602C53.1822 105.602 39.2512 105.737 25.3202 105.602C21.5139 105.602 20.2958 106.759 20.3567 110.532C20.5699 121.867 20.3567 133.201 20.4937 144.55C20.4937 147.933 19.4127 149.286 15.9262 149.06C12.1631 148.865 8.39217 148.865 4.62907 149.06C1.2034 149.21 -0.0450449 147.827 -0.0145945 144.445C0.152883 128.135 0.0919931 111.96 0.0919931 95.7556ZM20.5242 74.7856C20.5242 77.792 20.5242 80.7985 20.5242 83.8049C20.5242 85.8193 21.4377 86.8114 23.4779 86.8114C28.7458 86.8114 34.029 86.8114 39.2969 86.8114C41.6416 86.8114 42.1897 85.9395 41.1848 83.8049C38.901 78.9495 36.739 74.049 34.4857 69.1785C31.4406 62.6395 30.3749 62.1284 23.2343 63.0003C21.3616 63.2258 20.5394 64.0676 20.5394 65.8564C20.5394 68.8027 20.5242 71.7942 20.5242 74.7856Z" fill="white"/>
</g>
<defs>
<clipPath id="clip0_423_541">
<rect width="72" height="149" fill="white"/>
</clipPath>
</defs>
</svg>
