<svg width="20" height="20" viewBox="0 0 20 20" fill="none" xmlns="http://www.w3.org/2000/svg">
<g id="ic:outline-support">
<path id="Vector" d="M9.99935 1.66666C5.39935 1.66666 1.66602 5.4 1.66602 10C1.66602 14.6 5.39935 18.3333 9.99935 18.3333C14.5993 18.3333 18.3327 14.6 18.3327 10C18.3327 5.4 14.5993 1.66666 9.99935 1.66666ZM16.216 7.6L13.8994 8.55833C13.6906 7.99677 13.3628 7.48703 12.9385 7.06412C12.5141 6.64121 12.0033 6.31515 11.441 6.10833L12.3993 3.79166C14.1493 4.45833 15.541 5.85 16.216 7.6ZM9.99935 12.5C8.61602 12.5 7.49935 11.3833 7.49935 10C7.49935 8.61666 8.61602 7.5 9.99935 7.5C11.3827 7.5 12.4993 8.61666 12.4993 10C12.4993 11.3833 11.3827 12.5 9.99935 12.5ZM7.60768 3.78333L8.58268 6.1C8.01378 6.30732 7.4969 6.63615 7.06802 7.06358C6.63915 7.49102 6.30858 8.00679 6.09935 8.575L3.78268 7.60833C4.11684 6.73846 4.62999 5.94848 5.28891 5.28956C5.94783 4.63064 6.73781 4.11749 7.60768 3.78333ZM3.78268 12.3917L6.09935 11.4333C6.30713 12.0001 6.63632 12.5145 7.06386 12.9406C7.49139 13.3667 8.00693 13.6941 8.57435 13.9L7.59935 16.2167C6.73133 15.881 5.94325 15.3672 5.28589 14.7084C4.62853 14.0496 4.11647 13.2604 3.78268 12.3917ZM12.3993 16.2167L11.441 13.9C12.0059 13.6907 12.5184 13.3609 12.943 12.9335C13.3675 12.506 13.6939 11.9913 13.8994 11.425L16.216 12.4C15.8808 13.2669 15.3681 14.0542 14.7108 14.7115C14.0536 15.3687 13.2663 15.8814 12.3993 16.2167Z" fill="#105456"/>
</g>
</svg>
