<svg width="20" height="20" viewBox="0 0 20 20" fill="none" xmlns="http://www.w3.org/2000/svg">
<g id="carbon:area">
<path id="Vector" d="M16.8757 13.8388V6.1613C17.3022 6.052 17.6921 5.8318 18.006 5.52304C18.3199 5.21428 18.5464 4.82797 18.6627 4.40332C18.779 3.97867 18.7808 3.53082 18.6681 3.10523C18.5553 2.67964 18.3319 2.29148 18.0205 1.98016C17.7092 1.66883 17.3211 1.44544 16.8955 1.33265C16.4699 1.21986 16.022 1.2217 15.5974 1.33797C15.1727 1.45425 14.7864 1.68083 14.4777 1.9947C14.1689 2.30857 13.9487 2.69855 13.8394 3.12505H6.16191C6.05261 2.69855 5.83241 2.30857 5.52365 1.9947C5.21489 1.68083 4.82858 1.45425 4.40393 1.33797C3.97928 1.2217 3.53143 1.21986 3.10584 1.33265C2.68025 1.44544 2.29209 1.66883 1.98077 1.98016C1.66944 2.29148 1.44605 2.67964 1.33326 3.10523C1.22047 3.53082 1.22231 3.97867 1.33858 4.40332C1.45486 4.82797 1.68144 5.21428 1.99531 5.52304C2.30918 5.8318 2.69916 6.052 3.12566 6.1613V13.8388C2.69916 13.9481 2.30918 14.1683 1.99531 14.4771C1.68144 14.7858 1.45486 15.1721 1.33858 15.5968C1.22231 16.0214 1.22047 16.4693 1.33326 16.8949C1.44605 17.3204 1.66944 17.7086 1.98077 18.0199C2.29209 18.3313 2.68025 18.5547 3.10584 18.6674C3.53143 18.7802 3.97928 18.7784 4.40393 18.6621C4.82858 18.5458 5.21489 18.3193 5.52365 18.0054C5.83241 17.6915 6.05261 17.3015 6.16191 16.875H13.8394C13.9487 17.3015 14.1689 17.6915 14.4777 18.0054C14.7864 18.3193 15.1727 18.5458 15.5974 18.6621C16.022 18.7784 16.4699 18.7802 16.8955 18.6674C17.3211 18.5547 17.7092 18.3313 18.0205 18.0199C18.3319 17.7086 18.5553 17.3204 18.6681 16.8949C18.7808 16.4693 18.779 16.0214 18.6627 15.5968C18.5464 15.1721 18.3199 14.7858 18.006 14.4771C17.6921 14.1683 17.3022 13.9481 16.8757 13.8388ZM16.2507 2.50005C16.4979 2.50005 16.7396 2.57336 16.9451 2.71071C17.1507 2.84806 17.3109 3.04328 17.4055 3.27169C17.5001 3.5001 17.5249 3.75143 17.4766 3.99391C17.4284 4.23639 17.3094 4.45911 17.1345 4.63393C16.9597 4.80875 16.737 4.9278 16.4945 4.97603C16.252 5.02426 16.0007 4.99951 15.7723 4.9049C15.5439 4.81029 15.3487 4.65007 15.2113 4.44451C15.074 4.23895 15.0007 3.99727 15.0007 3.75005C15.001 3.41863 15.1328 3.10088 15.3671 2.86653C15.6015 2.63218 15.9192 2.50038 16.2507 2.50005ZM2.50066 3.75005C2.50066 3.50282 2.57397 3.26115 2.71132 3.05558C2.84867 2.85002 3.04389 2.68981 3.2723 2.5952C3.50071 2.50059 3.75204 2.47583 3.99452 2.52406C4.237 2.5723 4.45972 2.69135 4.63454 2.86616C4.80936 3.04098 4.92841 3.26371 4.97664 3.50618C5.02487 3.74866 5.00012 3.99999 4.90551 4.2284C4.8109 4.45681 4.65068 4.65203 4.44512 4.78938C4.23956 4.92673 3.99788 5.00005 3.75066 5.00005C3.41924 4.99972 3.10149 4.86791 2.86714 4.63356C2.63279 4.39922 2.50099 4.08147 2.50066 3.75005ZM3.75066 17.5C3.50343 17.5 3.26176 17.4267 3.05619 17.2894C2.85063 17.152 2.69042 16.9568 2.59581 16.7284C2.5012 16.5 2.47644 16.2487 2.52468 16.0062C2.57291 15.7637 2.69196 15.541 2.86677 15.3662C3.04159 15.1913 3.26432 15.0723 3.50679 15.0241C3.74927 14.9758 4.0006 15.0006 4.22901 15.0952C4.45742 15.1898 4.65264 15.35 4.78999 15.5556C4.92735 15.7611 5.00066 16.0028 5.00066 16.25C5.00033 16.5815 4.86852 16.8992 4.63417 17.1336C4.39983 17.3679 4.08208 17.4997 3.75066 17.5ZM13.8394 15.625H6.16191C6.04995 15.1953 5.8254 14.8033 5.51141 14.4893C5.19742 14.1753 4.80536 13.9507 4.37566 13.8388V6.1613C4.80533 6.04928 5.19736 5.82471 5.51134 5.51073C5.82532 5.19675 6.04989 4.80472 6.16191 4.37505H13.8394C13.9514 4.80475 14.1759 5.19681 14.4899 5.5108C14.8039 5.82479 15.196 6.04934 15.6257 6.1613V13.8388C15.1959 13.9507 14.8038 14.1752 14.4898 14.4892C14.1758 14.8032 13.9513 15.1953 13.8394 15.625ZM16.2507 17.5C16.0034 17.5 15.7618 17.4267 15.5562 17.2894C15.3506 17.152 15.1904 16.9568 15.0958 16.7284C15.0012 16.5 14.9764 16.2487 15.0247 16.0062C15.0729 15.7637 15.192 15.541 15.3668 15.3662C15.5416 15.1913 15.7643 15.0723 16.0068 15.0241C16.2493 14.9758 16.5006 15.0006 16.729 15.0952C16.9574 15.1898 17.1526 15.35 17.29 15.5556C17.4273 15.7611 17.5007 16.0028 17.5007 16.25C17.5002 16.5814 17.3683 16.8991 17.134 17.1334C16.8997 17.3677 16.582 17.4995 16.2507 17.5Z" fill="#105456"/>
</g>
</svg>
