<svg width="20" height="17" viewBox="0 0 20 17" fill="none" xmlns="http://www.w3.org/2000/svg">
<g id="Group">
<path id="Vector" d="M2.85714 3.54167C2.85714 2.60236 3.23342 1.70152 3.90319 1.03733C4.57296 0.373139 5.48137 0 6.42857 0H13.5714C14.5186 0 15.427 0.373139 16.0968 1.03733C16.7666 1.70152 17.1429 2.60236 17.1429 3.54167V5.7375C17.9495 5.90079 18.6746 6.33546 19.1952 6.96794C19.7159 7.60043 20.0002 8.39187 20 9.20833V16.2917C20 16.4795 19.9247 16.6597 19.7908 16.7925C19.6568 16.9254 19.4752 17 19.2857 17C19.0963 17 18.9146 16.9254 18.7806 16.7925C18.6467 16.6597 18.5714 16.4795 18.5714 16.2917V12.75H1.42857V16.2917C1.42857 16.4795 1.35332 16.6597 1.21936 16.7925C1.08541 16.9254 0.903726 17 0.714286 17C0.524845 17 0.343164 16.9254 0.209209 16.7925C0.0752549 16.6597 7.44488e-08 16.4795 7.44488e-08 16.2917V9.20833C-0.000167965 8.39187 0.284131 7.60043 0.804781 6.96794C1.32543 6.33546 2.05045 5.90079 2.85714 5.7375V3.54167ZM1.42857 11.3333H18.5714V9.20833C18.5714 8.64475 18.3457 8.10425 17.9438 7.70573C17.5419 7.30722 16.9969 7.08333 16.4286 7.08333H3.57143C3.00311 7.08333 2.45806 7.30722 2.0562 7.70573C1.65434 8.10425 1.42857 8.64475 1.42857 9.20833V11.3333ZM15.7143 3.54167C15.7143 2.97808 15.4885 2.43758 15.0867 2.03906C14.6848 1.64055 14.1397 1.41667 13.5714 1.41667H6.42857C5.86025 1.41667 5.31521 1.64055 4.91334 2.03906C4.51148 2.43758 4.28571 2.97808 4.28571 3.54167V5.66667H5.71429V4.95833C5.71429 4.77047 5.78954 4.5903 5.9235 4.45747C6.05745 4.32463 6.23913 4.25 6.42857 4.25H8.57143C8.76087 4.25 8.94255 4.32463 9.0765 4.45747C9.21046 4.5903 9.28571 4.77047 9.28571 4.95833V5.66667H10.7143V4.95833C10.7143 4.77047 10.7895 4.5903 10.9235 4.45747C11.0574 4.32463 11.2391 4.25 11.4286 4.25H13.5714C13.7609 4.25 13.9426 4.32463 14.0765 4.45747C14.2105 4.5903 14.2857 4.77047 14.2857 4.95833V5.66667H15.7143V3.54167Z" fill="#105456"/>
</g>
</svg>
