<svg width="24" height="25" viewBox="0 0 24 25" fill="none" xmlns="http://www.w3.org/2000/svg">
<g id="fluent:chat-20-filled">
<path id="Vector" d="M13.0026 2.67584C14.3621 2.67663 15.7038 2.98562 16.927 3.57962C18.1501 4.17362 19.223 5.03721 20.0651 6.10558C20.9072 7.17395 21.4966 8.41935 21.7891 9.74833C22.0817 11.0773 22.0697 12.4553 21.7541 13.779C21.4385 15.1027 20.8276 16.3377 19.967 17.3912C19.1065 18.4447 18.0188 19.2895 16.7855 19.8621C15.5522 20.4347 14.2053 20.7203 12.846 20.6974C11.4867 20.6745 10.1502 20.3438 8.9368 19.73L8.80064 19.6568L4.69883 20.6818C4.61989 20.7017 4.53758 20.7042 4.45758 20.6891C4.37759 20.674 4.30181 20.6418 4.23548 20.5946C4.16915 20.5473 4.11385 20.4863 4.07339 20.4156C4.03293 20.3449 4.00827 20.2662 4.00113 20.1851V20.0927L4.01688 19.9992L5.04093 15.8945L4.97003 15.7593C4.45506 14.7446 4.13807 13.6409 4.03601 12.5073L4.00788 12.077L4 11.6873C4 9.2973 4.94849 7.0052 6.6368 5.31523C8.32512 3.62526 10.615 2.67584 13.0026 2.67584ZM13.5653 12.8137H10.1893L10.088 12.8227C9.95828 12.8462 9.84092 12.9146 9.7564 13.0159C9.67189 13.1172 9.6256 13.245 9.6256 13.3769C9.6256 13.5089 9.67189 13.6367 9.7564 13.738C9.84092 13.8392 9.95828 13.9076 10.088 13.9311L10.1893 13.9401H13.5653L13.6665 13.9311C13.7963 13.9076 13.9136 13.8392 13.9981 13.738C14.0827 13.6367 14.129 13.5089 14.129 13.3769C14.129 13.245 14.0827 13.1172 13.9981 13.0159C13.9136 12.9146 13.7963 12.8462 13.6665 12.8227L13.5653 12.8137ZM15.8159 9.43442H10.1893L10.088 9.44343C9.95828 9.46694 9.84092 9.53531 9.7564 9.6366C9.67189 9.73788 9.6256 9.86566 9.6256 9.99763C9.6256 10.1296 9.67189 10.2574 9.7564 10.3587C9.84092 10.46 9.95828 10.5283 10.088 10.5518L10.1893 10.5608H15.8159L15.9172 10.5518C16.0469 10.5283 16.1643 10.46 16.2488 10.3587C16.3333 10.2574 16.3796 10.1296 16.3796 9.99763C16.3796 9.86566 16.3333 9.73788 16.2488 9.6366C16.1643 9.53531 16.0469 9.46694 15.9172 9.44343L15.8159 9.43442Z" fill="white"/>
</g>
</svg>
