<svg width="24" height="24" viewBox="0 0 24 24" fill="none" xmlns="http://www.w3.org/2000/svg">
<g id="ri:line-line">
<path id="Vector" d="M22.001 10.69C22.001 12.477 21.314 14.09 19.878 15.664C17.778 18.078 13.09 21.027 12.014 21.476C10.94 21.927 11.103 21.19 11.14 20.939L11.277 20.089C11.311 19.827 11.345 19.439 11.245 19.189C11.133 18.912 10.689 18.766 10.364 18.697C5.559 18.06 2 14.7 2 10.691C2 6.21502 6.487 2.57202 12 2.57202C17.513 2.57202 22 6.21502 22 10.691L22.001 10.69ZM18.401 14.316C19.514 13.096 20.001 11.954 20.001 10.691C20.001 7.42202 16.491 4.57202 12.001 4.57202C7.511 4.57202 4.001 7.42202 4.001 10.691C4.001 13.595 6.729 16.197 10.627 16.715L10.774 16.74C11.853 16.966 12.658 17.354 13.103 18.448L13.14 18.544C14.945 17.368 17.314 15.565 18.401 14.316ZM18.139 10.315C18.2726 10.3233 18.3981 10.3822 18.4898 10.4797C18.5815 10.5773 18.6326 10.7061 18.6326 10.84C18.6326 10.9739 18.5815 11.1028 18.4898 11.2003C18.3981 11.2979 18.2726 11.3568 18.139 11.365H16.676V12.303H18.139C18.2782 12.303 18.4118 12.3583 18.5102 12.4568C18.6087 12.5552 18.664 12.6888 18.664 12.828C18.664 12.9673 18.6087 13.1008 18.5102 13.1993C18.4118 13.2977 18.2782 13.353 18.139 13.353H16.15C16.0114 13.352 15.8787 13.2962 15.781 13.1979C15.6832 13.0996 15.6283 12.9667 15.628 12.828V8.85202C15.628 8.56502 15.863 8.32702 16.153 8.32702H18.141C18.2746 8.33552 18.4 8.39467 18.4915 8.49239C18.583 8.59012 18.6339 8.71907 18.6336 8.85296C18.6333 8.98686 18.582 9.11561 18.4901 9.21299C18.3982 9.31036 18.2727 9.36903 18.139 9.37702H16.676V10.315H18.139ZM14.926 12.828C14.9255 12.9671 14.8698 13.1003 14.7712 13.1983C14.6726 13.2964 14.5391 13.3513 14.4 13.351C14.3176 13.3527 14.236 13.3346 14.162 13.2983C14.0881 13.2619 14.0239 13.2083 13.975 13.142L11.939 10.378V12.828C11.929 12.96 11.8695 13.0834 11.7724 13.1734C11.6754 13.2634 11.5479 13.3134 11.4155 13.3134C11.2831 13.3134 11.1556 13.2634 11.0586 13.1734C10.9615 13.0834 10.902 12.96 10.892 12.828V8.85202C10.8917 8.71375 10.9463 8.58102 11.0438 8.48297C11.1413 8.38492 11.2737 8.32955 11.412 8.32902C11.4921 8.33157 11.5706 8.35192 11.6419 8.38859C11.7132 8.42526 11.7754 8.47733 11.824 8.54102L13.876 11.316V8.85202C13.876 8.56502 14.111 8.32702 14.401 8.32702C14.688 8.32702 14.926 8.56502 14.926 8.85202V12.828ZM10.142 12.828C10.1412 12.9671 10.0855 13.1002 9.98694 13.1984C9.88841 13.2965 9.75508 13.3518 9.616 13.352C9.47736 13.3512 9.34464 13.2957 9.2467 13.1976C9.14876 13.0995 9.09353 12.9667 9.093 12.828V8.85202C9.093 8.56502 9.328 8.32702 9.618 8.32702C9.907 8.32702 10.142 8.56502 10.142 8.85202V12.828ZM8.087 13.352H6.098C5.95918 13.3512 5.82625 13.2958 5.72799 13.1977C5.62973 13.0997 5.57405 12.9668 5.573 12.828V8.85202C5.573 8.56502 5.811 8.32702 6.098 8.32702C6.388 8.32702 6.623 8.56502 6.623 8.85202V12.303H8.087C8.22624 12.303 8.35977 12.3583 8.45823 12.4568C8.55669 12.5552 8.612 12.6888 8.612 12.828C8.612 12.9673 8.55669 13.1008 8.45823 13.1993C8.35977 13.2977 8.22624 13.352 8.087 13.352Z" fill="white"/>
</g>
</svg>
