<svg width="20" height="15" viewBox="0 0 20 15" fill="none" xmlns="http://www.w3.org/2000/svg">
<path id="Vector" d="M17.5 4.16667V2.5C17.5 1.125 16.375 0 15 0H11.6667C11.025 0 10.4417 0.25 10 0.65C9.55833 0.25 8.975 0 8.33333 0H5C3.625 0 2.5 1.125 2.5 2.5V4.16667C1.125 4.16667 0 5.29167 0 6.66667V10.8333C0 12.2083 1.125 13.3333 2.5 13.3333V15H4.16667V13.3333H15.8333V15H17.5V13.3333C18.875 13.3333 20 12.2083 20 10.8333V6.66667C20 5.29167 18.875 4.16667 17.5 4.16667ZM11.6667 1.66667H15C15.4583 1.66667 15.8333 2.04167 15.8333 2.5V4.81667C15.325 5.275 15 5.93333 15 6.66667V8.33333H10.8333V2.5C10.8333 2.04167 11.2083 1.66667 11.6667 1.66667ZM4.16667 2.5C4.16667 2.04167 4.54167 1.66667 5 1.66667H8.33333C8.79167 1.66667 9.16667 2.04167 9.16667 2.5V8.33333H5V6.66667C5 5.93333 4.675 5.275 4.16667 4.81667V2.5ZM18.3333 10.8333C18.3333 11.2917 17.9583 11.6667 17.5 11.6667H2.5C2.04167 11.6667 1.66667 11.2917 1.66667 10.8333V6.66667C1.66667 6.20833 2.04167 5.83333 2.5 5.83333C2.95833 5.83333 3.33333 6.20833 3.33333 6.66667V10H16.6667V6.66667C16.6667 6.20833 17.0417 5.83333 17.5 5.83333C17.9583 5.83333 18.3333 6.20833 18.3333 6.66667V10.8333Z" fill="#105456"/>
</svg>
