<svg width="20" height="20" viewBox="0 0 20 20" fill="none" xmlns="http://www.w3.org/2000/svg">
<g id="fa:thumbs-o-up">
<path id="Vector" d="M4.5 14.1154C4.5 13.9591 4.43815 13.8239 4.31445 13.7097C4.19076 13.5956 4.04427 13.5385 3.875 13.5385C3.70573 13.5385 3.55924 13.5956 3.43555 13.7097C3.31185 13.8239 3.25 13.9591 3.25 14.1154C3.25 14.2716 3.31185 14.4069 3.43555 14.521C3.55924 14.6352 3.70573 14.6923 3.875 14.6923C4.04427 14.6923 4.19076 14.6352 4.31445 14.521C4.43815 14.4069 4.5 14.2716 4.5 14.1154ZM15.75 8.92308C15.75 8.61659 15.623 8.34766 15.3691 8.11629C15.1152 7.88492 14.8255 7.76923 14.5 7.76923H11.0625C11.0625 7.42067 11.2188 6.94141 11.5312 6.33143C11.8438 5.72145 12 5.23918 12 4.88462C12 4.29567 11.8958 3.85998 11.6875 3.57752C11.4792 3.29507 11.0625 3.15385 10.4375 3.15385C10.2682 3.3101 10.1445 3.5655 10.0664 3.92007C9.98828 4.27464 9.889 4.65174 9.76855 5.05138C9.64811 5.45102 9.45443 5.78005 9.1875 6.03846C9.04427 6.17668 8.79362 6.45012 8.43555 6.85877C8.40951 6.88882 8.33464 6.97897 8.21094 7.12921C8.08724 7.27945 7.9847 7.40264 7.90332 7.4988C7.82194 7.59495 7.70964 7.72266 7.56641 7.88191C7.42318 8.04117 7.29297 8.17338 7.17578 8.27855C7.05859 8.38371 6.93327 8.49038 6.7998 8.59856C6.66634 8.70673 6.53613 8.78786 6.40918 8.84195C6.28223 8.89603 6.16667 8.92308 6.0625 8.92308H5.75V14.6923H6.0625C6.14714 14.6923 6.24967 14.7013 6.37012 14.7194C6.49056 14.7374 6.59798 14.7569 6.69238 14.7779C6.78678 14.799 6.91048 14.832 7.06348 14.8771C7.21647 14.9222 7.3304 14.9567 7.40527 14.9808C7.48014 15.0048 7.5957 15.0424 7.75195 15.0934C7.9082 15.1445 8.0026 15.1761 8.03516 15.1881C9.40885 15.6268 10.5221 15.8462 11.375 15.8462H12.5566C13.8066 15.8462 14.4316 15.3444 14.4316 14.3407C14.4316 14.1845 14.4154 14.0162 14.3828 13.8359C14.5781 13.7398 14.7327 13.582 14.8467 13.3627C14.9606 13.1433 15.0176 12.9225 15.0176 12.7001C15.0176 12.4778 14.959 12.2704 14.8418 12.0781C15.1868 11.7776 15.3594 11.4201 15.3594 11.0054C15.3594 10.8552 15.3268 10.6884 15.2617 10.5051C15.1966 10.3218 15.1152 10.1791 15.0176 10.0769C15.2259 10.0709 15.4001 9.92969 15.54 9.65324C15.68 9.3768 15.75 9.13341 15.75 8.92308ZM17 8.91406C17 9.44892 16.8405 9.9387 16.5215 10.3834C16.5801 10.5817 16.6094 10.7891 16.6094 11.0054C16.6094 11.4681 16.4857 11.9008 16.2383 12.3035C16.2578 12.4297 16.2676 12.5589 16.2676 12.6911C16.2676 13.2981 16.0723 13.8329 15.6816 14.2957C15.6882 15.131 15.4115 15.7906 14.8516 16.2743C14.2917 16.7581 13.5527 17 12.6348 17H11.375C10.75 17 10.1331 16.9324 9.52441 16.7972C8.91569 16.662 8.21094 16.4651 7.41016 16.2067C6.65495 15.9663 6.20573 15.8462 6.0625 15.8462H3.25C2.90495 15.8462 2.61035 15.7335 2.36621 15.5081C2.12207 15.2828 2 15.0108 2 14.6923V8.92308C2 8.60457 2.12207 8.33263 2.36621 8.10727C2.61035 7.88191 2.90495 7.76923 3.25 7.76923H5.92578C6.16016 7.625 6.60612 7.15926 7.26367 6.37199C7.64128 5.92127 7.98958 5.53666 8.30859 5.21815C8.46484 5.06791 8.5804 4.811 8.65527 4.44742C8.73014 4.08383 8.82943 3.70373 8.95312 3.30709C9.07682 2.91046 9.27865 2.58594 9.55859 2.33353C9.8125 2.11118 10.1055 2 10.4375 2C10.9844 2 11.4759 2.09766 11.9121 2.29297C12.3483 2.48828 12.6803 2.79327 12.9082 3.20793C13.1361 3.6226 13.25 4.18149 13.25 4.88462C13.25 5.44351 13.0938 6.02043 12.7812 6.61538H14.5C15.1771 6.61538 15.763 6.84375 16.2578 7.30048C16.7526 7.75721 17 8.29507 17 8.91406Z" fill="#105456"/>
</g>
</svg>
