<svg width="20" height="28" viewBox="0 0 20 28" fill="none" xmlns="http://www.w3.org/2000/svg">
<g id="Group 6">
<path id="Vector" d="M13.3111 12.2475C11.0799 12.2475 6.4698 8.52479 6.19061 8.29768C5.65101 7.75683 4.5061 6.35672 5.18647 4.80441C5.33193 4.4696 5.64866 4.30103 6.12258 4.30103C6.69738 4.30103 7.4411 4.56091 8.10974 4.9964L14.09 9.60649C14.4278 9.86169 14.5874 10.2176 14.5616 10.6671C14.5381 11.0909 14.3457 11.5732 14.029 11.99C13.8742 12.1632 13.6395 12.2475 13.3111 12.2475Z" fill="url(#paint0_radial_6_251)"/>
<path id="Vector_2" d="M6.12269 4.64991C6.62945 4.64991 7.29575 4.88404 7.90574 5.27973L13.879 9.88747C14.1183 10.0678 14.2262 10.3159 14.2074 10.6461C14.1886 10.9973 14.0244 11.4047 13.7546 11.7652C13.7124 11.8097 13.6021 11.8963 13.3065 11.8963C11.5235 11.8963 7.76263 9.13122 6.42534 8.03782C5.93265 7.53912 4.91678 6.28884 5.50566 4.94492C5.54789 4.85595 5.63939 4.64991 6.12269 4.64991ZM6.12269 3.94751C5.55258 3.94751 5.0857 4.16057 4.86517 4.66162C4.22937 6.1109 4.95667 7.56019 5.95377 8.55759C5.95377 8.55759 10.8665 12.5987 13.3089 12.5987C13.7218 12.5987 14.0643 12.4817 14.3013 12.2124C15.0004 11.2899 15.228 10.0256 14.3036 9.32789L8.31396 4.7061C7.60309 4.24018 6.79368 3.94751 6.12269 3.94751Z" fill="#EDA600"/>
<path id="Vector_3" d="M17.6631 19.9021C15.4812 19.8786 14.7774 15.1562 14.6906 13.3346C14.6883 13.2829 14.6744 13.2323 14.6501 13.1865C14.6258 13.1407 14.5915 13.1009 14.5498 13.07C13.5433 12.3138 12.4172 9.7477 11.6993 7.59601C11.6782 7.53514 11.6641 7.5047 11.6617 7.50236C11.6172 7.42275 11.5444 7.36188 11.4553 7.33378C9.8435 6.83976 7.38476 4.84026 6.40174 3.68365C5.85979 3.0468 5.51256 1.69585 5.87621 0.913849C6.05217 0.534553 6.36655 0.351929 6.83812 0.351929C7.43403 0.351929 8.25517 0.656302 9.21474 1.23461C9.48219 1.42894 14.0665 4.76768 15.2677 6.09522C16.4901 7.44617 17.9986 10.4571 18.0127 10.4876C19.9482 14.5662 19.6644 18.2397 19.5682 19.0732C18.7658 19.4572 17.8625 19.8599 17.6631 19.9021Z" fill="url(#paint1_radial_6_251)"/>
<path id="Vector_4" d="M6.84065 0.7024C7.20899 0.7024 7.88702 0.845221 9.02254 1.52655C9.39088 1.79346 13.8485 5.04323 15.0098 6.32862C16.1759 7.61636 17.6234 10.4915 17.6985 10.6367C19.4675 14.3711 19.3408 17.766 19.2422 18.8384C18.5689 19.1568 17.8557 19.4729 17.6234 19.5454C15.9014 19.4518 15.1436 15.324 15.045 13.3152C15.0356 13.1068 14.9324 12.9125 14.7658 12.786C14.177 12.3435 13.1071 10.6882 12.0373 7.4829C12.0185 7.42671 12.0045 7.38691 11.974 7.33071C11.8848 7.16916 11.7394 7.04975 11.5634 6.9959C10.8572 6.77816 9.89765 6.22561 8.85831 5.43658C8.00198 4.78569 7.1433 4.00602 6.67408 3.45347C6.15558 2.84472 5.92097 1.65766 6.19781 1.05828C6.27993 0.882682 6.4207 0.7024 6.84065 0.7024ZM6.84065 0C4.85818 0 5.16787 2.77214 6.13681 3.91003C7.07057 5.00811 9.58561 7.12468 11.3569 7.67021C11.3663 7.6866 12.8092 12.1983 14.3412 13.3503C14.3412 13.3503 14.6697 20.2525 17.6821 20.2525C17.9448 20.2525 19.8968 19.3066 19.8968 19.3066C19.8968 19.3066 20.6006 15.111 18.3319 10.3323C18.3319 10.3323 16.8046 7.26516 15.533 5.86036C14.2614 4.45556 9.412 0.943557 9.412 0.943557C8.29759 0.269253 7.45768 0 6.84065 0Z" fill="#EDA600"/>
<g id="Group">
<path id="Vector_5" d="M7.05634 27.6496C6.52612 27.6449 5.18414 26.8886 4.99879 26.7271C4.98941 26.7177 4.97064 26.7037 4.96126 26.6966C4.94014 26.6826 2.83802 25.1818 1.77757 23.7068C0.735893 22.2598 0.400398 19.4245 0.398052 19.3964C0.264323 18.4692 0.365206 17.2938 1.58753 16.8888C1.78226 16.8232 1.97934 16.7905 2.17641 16.7905C3.09609 16.7905 3.8187 17.4905 4.19407 18.1531C4.33484 18.5067 5.7824 21.9531 8.53909 21.9531C9.00362 21.9531 9.48223 21.8524 9.96084 21.6511C11.6477 20.9463 12.3046 19.6937 12.558 18.7665C12.9779 17.233 12.5768 15.5659 11.9855 14.7769C11.3615 13.9411 10.2776 13.4424 9.09043 13.4424C8.63293 13.4424 8.19186 13.5173 7.81883 13.6624C7.24872 13.8825 6.73492 14.2782 6.23754 14.6598C5.74955 15.0345 5.24514 15.4231 4.67972 15.6573C4.23396 15.8422 3.81166 15.9312 3.38701 15.9312C2.69725 15.9312 2.01687 15.69 1.306 15.196C0.99162 14.9783 0.836776 14.6996 0.846161 14.3695C0.857891 13.9153 1.184 13.4189 1.67903 13.1099C3.30255 11.979 5.75424 10.2792 5.98651 10.1364C6.76542 9.77348 7.99479 9.47614 8.73147 9.47614C8.96139 9.47614 9.09043 9.50423 9.15846 9.5253L14.2144 11.1642C15.2889 11.5225 16.8983 14.009 17.6725 15.2054L17.886 15.5332C17.9001 15.5542 17.9142 15.573 17.9306 15.5894C17.9494 15.6081 19.8826 17.5654 19.4978 19.2559C19.3336 19.977 18.6931 21.5879 17.6467 23.9105C16.6285 26.1722 14.2754 27.6355 11.6547 27.6379L7.05634 27.6496Z" fill="url(#paint2_radial_6_251)"/>
<path id="Vector_6" d="M8.73168 9.82893C8.93579 9.82893 9.02494 9.85468 9.0531 9.86171L14.0996 11.4983C15.0592 11.8167 16.6827 14.3266 17.3771 15.3966C17.4546 15.516 17.5249 15.6261 17.5906 15.7267C17.6164 15.7665 17.6469 15.8063 17.6821 15.8391C18.1889 16.3449 19.4394 17.9276 19.1531 19.1779C19.0429 19.6649 18.6347 20.8566 17.3232 23.7669C16.3613 25.9022 14.1348 27.2836 11.6503 27.2882L7.05655 27.2953C6.68821 27.2929 5.49169 26.6655 5.22658 26.4571C5.20546 26.4383 5.18435 26.4196 5.16088 26.4056C5.13977 26.3915 3.08691 24.9258 2.05931 23.4976C1.07394 22.1256 0.747833 19.3792 0.743141 19.3511C0.743141 19.3441 0.740795 19.3371 0.740795 19.3301C0.576566 18.1898 0.897985 17.4781 1.69332 17.2158C1.85286 17.162 2.01239 17.1362 2.17193 17.1362C2.93207 17.1362 3.54441 17.7309 3.87052 18.3022C4.06994 18.7915 5.60196 22.2989 8.53461 22.2989C9.04606 22.2989 9.57159 22.1888 10.0924 21.9711C11.9107 21.2125 12.6169 19.8569 12.8913 18.8548C13.3442 17.1948 12.9172 15.4388 12.2626 14.5631C11.5728 13.6406 10.3833 13.0881 9.08594 13.0881C8.58622 13.0881 8.10292 13.1724 7.69 13.3316C7.07063 13.5704 6.53806 13.9801 6.01956 14.3781C5.52922 14.7574 5.06469 15.1133 4.54151 15.3311C4.14032 15.4973 3.76025 15.5792 3.38487 15.5792C2.77019 15.5792 2.15551 15.3592 1.50563 14.9073C1.29213 14.7574 1.1889 14.5842 1.19594 14.3758C1.20298 14.041 1.47278 13.65 1.86459 13.4041C1.87397 13.3971 1.88336 13.3924 1.89274 13.3854C3.39426 12.3388 5.83422 10.6461 6.15329 10.4424C6.88528 10.1099 8.056 9.82893 8.73168 9.82893ZM8.73168 9.12653C7.88473 9.12653 6.59671 9.46134 5.82484 9.82424C5.74272 9.85234 1.48921 12.8141 1.48921 12.8141C0.47803 13.4486 0.0486893 14.7504 1.10444 15.4856C1.89274 16.0358 2.64584 16.284 3.38722 16.284C3.86583 16.284 4.33974 16.1786 4.81366 15.9843C6.01722 15.4856 6.88528 14.3992 7.94338 13.9918C8.27184 13.8654 8.66833 13.7951 9.08594 13.7951C10.022 13.7951 11.0661 14.1417 11.6995 14.9869C12.6145 16.2091 13.0931 19.9599 9.82028 21.3272C9.36279 21.5192 8.93345 21.6011 8.53461 21.6011C5.89757 21.6011 4.50866 18.0025 4.50866 18.0025C4.03709 17.1526 3.17841 16.4385 2.17427 16.4385C1.94905 16.4385 1.71443 16.4736 1.47513 16.5532C0.17538 16.9817 -0.131962 18.1875 0.0463431 19.4331C0.0463431 19.4331 0.381839 22.3691 1.48921 23.9097C2.59658 25.4503 4.75501 26.9792 4.75501 26.9792C4.93331 27.1501 6.39494 27.9953 7.05186 28L11.6526 27.993C14.4046 27.9883 16.8915 26.4407 17.966 24.0572C18.7942 22.2169 19.6341 20.2338 19.8406 19.3347C20.2746 17.4336 18.1795 15.3428 18.1795 15.3428C17.3677 14.1019 15.6199 11.2642 14.3225 10.8334L9.27129 9.19442C9.13052 9.1476 8.94518 9.12653 8.73168 9.12653Z" fill="#EDA600"/>
</g>
</g>
<defs>
<radialGradient id="paint0_radial_6_251" cx="0" cy="0" r="1" gradientUnits="userSpaceOnUse" gradientTransform="translate(3.70396 5.00413) scale(4.41282 4.40381)">
<stop offset="0.279" stop-color="#FFCA28"/>
<stop offset="0.797" stop-color="#FFB300"/>
</radialGradient>
<radialGradient id="paint1_radial_6_251" cx="0" cy="0" r="1" gradientUnits="userSpaceOnUse" gradientTransform="translate(9.42401 4.84378) scale(8.49765 8.48031)">
<stop stop-color="#FFCA28"/>
<stop offset="1" stop-color="#FFB300"/>
</radialGradient>
<radialGradient id="paint2_radial_6_251" cx="0" cy="0" r="1" gradientUnits="userSpaceOnUse" gradientTransform="translate(7.4736 13.1942) scale(14.6464 13.7736)">
<stop offset="0.242" stop-color="#FFCA28"/>
<stop offset="0.797" stop-color="#FFB300"/>
</radialGradient>
</defs>
</svg>
